<svg width="39" height="39" viewBox="0 0 39 39" fill="none" xmlns="http://www.w3.org/2000/svg">
<rect x="1" y="1" width="37" height="37" rx="2" fill="white" stroke="#E5E5E5" stroke-width="2"/>
<path d="M30.7001 11.2843C30.5105 11.1021 30.2557 11 29.9903 11C29.7249 11 29.47 11.1021 29.2805 11.2843L15.7032 24.6028L10.7347 19.729C10.6405 19.6358 10.5283 19.5618 10.4047 19.5113C10.2812 19.4608 10.1486 19.4348 10.0148 19.4348C9.88093 19.4348 9.7484 19.4608 9.62483 19.5113C9.50127 19.5618 9.38912 19.6358 9.29486 19.729C9.106 19.9154 9 20.1675 9 20.4302C9 20.693 9.106 20.9451 9.29486 21.1315L14.9833 26.7115C15.0781 26.8037 15.1904 26.8767 15.314 26.9262C15.4375 26.9756 15.5698 27.0007 15.7032 27C15.9692 26.9989 16.2242 26.8953 16.413 26.7115L30.7001 12.6968C30.7951 12.6043 30.8705 12.4943 30.922 12.3731C30.9735 12.2519 31 12.1218 31 11.9905C31 11.8592 30.9735 11.7292 30.922 11.608C30.8705 11.4868 30.7951 11.3768 30.7001 11.2843Z" fill="#D22856"/>
</svg>
