<svg width="94" height="31" viewBox="0 0 94 31" fill="none" xmlns="http://www.w3.org/2000/svg">
<path d="M93.94 3.74563C92.9748 3.74563 92.0489 3.36936 91.3655 2.69932C90.682 2.02927 90.2967 1.12014 90.2941 0.171246C90.2941 1.11923 89.911 2.02839 89.2292 2.69872C88.5473 3.36905 87.6225 3.74563 86.6582 3.74563C87.6234 3.74825 88.5482 4.12703 89.2298 4.79892C89.9113 5.47082 90.2941 6.38099 90.2941 7.32989C90.2967 6.38009 90.6817 5.46993 91.3649 4.79832C92.048 4.1267 92.9739 3.74824 93.94 3.74563Z" fill="#D22856"/>
<path d="M45.9203 9.91688C45.3273 9.91817 44.7398 9.80446 44.1915 9.58224C43.6432 9.36002 43.1448 9.03366 42.725 8.62185C42.3052 8.21004 41.9721 7.72087 41.7448 7.18233C41.5176 6.6438 41.4006 6.06649 41.4006 5.48345C41.3979 6.66018 40.9206 7.78781 40.0733 8.61896C39.2259 9.4501 38.0778 9.91688 36.8809 9.91688C38.0788 9.91948 39.2268 10.3885 40.0739 11.2212C40.9209 12.0539 41.3979 13.1825 41.4006 14.3602C41.4006 13.1817 41.8768 12.0516 42.7244 11.2183C43.572 10.385 44.7216 9.91688 45.9203 9.91688Z" fill="#D22856"/>
<path d="M33.0744 13.3826C32.3418 13.3826 31.6393 13.0966 31.1213 12.5873C30.6033 12.0781 30.3123 11.3875 30.3123 10.6673C30.3123 11.3857 30.0227 12.0749 29.5069 12.5839C28.9911 13.0928 28.2911 13.38 27.5603 13.3826C28.2902 13.3826 28.9902 13.6677 29.5063 14.1751C30.0224 14.6824 30.3123 15.3706 30.3123 16.0881C30.315 15.3697 30.6072 14.6816 31.1249 14.1745C31.6426 13.6674 32.3436 13.3826 33.0744 13.3826Z" fill="#D22856"/>
<path d="M5.78501 27.6407C5.05595 27.6355 4.35856 27.3471 3.84491 26.8384C3.33126 26.3298 3.04302 25.6421 3.04303 24.9253C3.04304 25.6438 2.75342 26.333 2.2376 26.8419C1.72178 27.3508 1.02182 27.6381 0.291016 27.6407C1.02182 27.6433 1.72178 27.9305 2.2376 28.4395C2.75342 28.9484 3.04304 29.6376 3.04303 30.356C3.04302 29.6393 3.33126 28.9516 3.84491 28.4429C4.35856 27.9343 5.05595 27.6459 5.78501 27.6407Z" fill="#D22856"/>
</svg>
